<?xml version="1.0" encoding="UTF-8"?>
<svg id="Layer_1" xmlns="http://www.w3.org/2000/svg" xmlns:xlink="http://www.w3.org/1999/xlink" version="1.1" viewBox="0 0 31.9 32">
  <!-- Generator: Adobe Illustrator 29.3.0, SVG Export Plug-In . SVG Version: 2.1.0 Build 146)  -->
  <g id="Layer_1-2">
    <g>
      <path d="M14.5,25.9c-.6.6-1.3.9-2.1.9H3.7v-1h-1v-3.8h7.8v-.2H4c-.8,0-1.5-.3-2.1-.9-.2-.2-.3-.4-.4-.5-.2,0-.3-.2-.5-.4-.6-.6-.9-1.3-.9-2.1v-5.5c0-.8.3-1.5.9-2.1.6-.6,1.3-.9,2.1-.9h10c.4,0,.7.1.9.4,0,.1.2.2.2.3,0,0,0,.1,0,.1s0,.1,0,.2c.2,0,.4.2.6.3.3.3.4.6.4,1v12.1c0,.8-.3,1.5-.9,2.1h0ZM14.2,10.8c0-.3-.1-.6-.3-.8s-.5-.3-.8-.3H3c-.8,0-1.4.3-2,.8s-.8,1.2-.8,1.9v5.5c0,.8.3,1.4.8,2s1.2.8,1.9.8h7.7v1.5H2.9v3.4h8.5c.8,0,1.4-.3,2-.8s.8-1.2.8-1.9c0,0,0-12.1,0-12.1ZM3.7,17.2v-4.2h7v4.2H3.7ZM10.6,14.2h-5.7v2.9h5.7v-2.9Z"/>
      <path d="M28,21.8v-1h-1v-3.2h-5.7v4.2h-3.8v-1h-1V5.3h3.8v1h1v6.7h2.5v-3.5h3.8v1h1v2.6c.5.1,1,.4,1.4.8,0,0,.2.2.2.2s.1.2.2.3c0,0,0,0,.1,0s0,0,.1,0c0,0,0,0,.1.1,0,0,0,0,.1.1.6.6.9,1.3.9,2.1v5h-3.8ZM30.6,15.8c0-.8-.3-1.4-.8-2s-1.2-.8-1.9-.8h-.5v-3.5h-3.4v3.5h-3.8v-7.6h-3.4v15.2h3.4v-4.2h7v4.2h3.4s0-4.8,0-4.8Z"/>
    </g>
  </g>
</svg>