<?xml version="1.0" encoding="UTF-8"?>
<svg id="Layer_2" data-name="Layer 2" xmlns="http://www.w3.org/2000/svg" viewBox="0 0 92.29 20.34">
  <g id="Layer_1-2" data-name="Layer 1">
    <g>
      <path d="M13.59,19.51c-.55.55-1.21.83-1.98.83H3.42v-.9h-.9v-3.6h7.38v-.18H3.69c-.77,0-1.42-.27-1.96-.81-.19-.19-.33-.35-.41-.49-.16-.08-.32-.22-.49-.41-.55-.58-.83-1.24-.83-1.98v-5.22c0-.77.27-1.42.81-1.96s1.21-.83,1.98-.83h9.45c.36,0,.65.12.88.36.08.1.16.19.22.27.02.05.05.1.07.14s.04.1.05.16c.22.06.4.17.56.32.25.25.38.55.38.9v11.43c0,.77-.27,1.42-.81,1.96ZM13.32,5.22c0-.3-.11-.56-.32-.77-.2-.2-.46-.31-.76-.31H2.79c-.72,0-1.34.26-1.85.77s-.76,1.12-.76,1.84v5.22c0,.72.26,1.34.77,1.85s1.12.76,1.84.76h7.29v1.44H2.7v3.24h8.01c.72,0,1.34-.26,1.85-.77.5-.5.76-1.12.76-1.84V5.22ZM3.42,11.34v-3.96h6.66v3.96H3.42ZM9.9,8.46h-5.4v2.7h5.4v-2.7Z"/>
      <path d="M26.39,15.66v-.9h-.9v-3.06h-5.4v3.96h-3.6v-.9h-.9V0h3.6v.9h.9v6.3h2.34v-3.33h3.6v.9h.9v2.5c.5.11.95.35,1.33.74.08.07.16.15.22.23.06.08.12.17.18.27.05.02.09.05.13.09s.08.07.12.09c.05.04.09.07.13.11.04.04.08.07.12.11.55.54.83,1.2.83,1.98v4.77h-3.6ZM28.91,9.99c0-.72-.26-1.34-.77-1.85s-1.12-.76-1.84-.76h-.45v-3.33h-3.24v3.33h-3.6V.18h-3.24v14.4h3.24v-3.96h6.66v3.96h3.24v-4.59Z"/>
      <path d="M41.96,15.66v-.9h-.9v-6.3h-5.4v7.2h-3.6v-.9h-.9V5.22c0-.35.12-.64.36-.88s.55-.38.9-.38h9.45c.77,0,1.42.27,1.96.81.16.16.29.32.4.5.05.02.09.05.13.09s.08.07.12.09c.05.04.09.07.13.11s.08.07.12.11c.55.54.83,1.2.83,1.98v8.01h-3.6ZM44.48,6.75c0-.72-.26-1.34-.77-1.85-.5-.5-1.12-.76-1.84-.76h-9.45c-.3,0-.56.11-.77.32-.2.2-.31.46-.31.76v9.36h3.24v-7.2h6.66v7.2h3.24v-7.83Z"/>
      <path d="M60.32,14.83c-.55.55-1.21.83-1.98.83h-7.92c-.77,0-1.42-.27-1.96-.81-.19-.19-.33-.35-.41-.49-.16-.08-.32-.22-.49-.41-.55-.58-.83-1.24-.83-1.98v-5.22c0-.77.27-1.42.81-1.96s1.21-.83,1.98-.83h7.92c.77,0,1.42.27,1.96.81.16.16.29.32.4.5.05.02.09.05.13.09s.08.07.12.09c.05.04.09.07.13.11s.08.07.12.11c.55.54.83,1.2.83,1.98v5.22c0,.77-.27,1.42-.81,1.96ZM60.05,6.75c0-.72-.26-1.34-.77-1.85-.5-.5-1.12-.76-1.84-.76h-7.92c-.72,0-1.34.26-1.85.77s-.76,1.12-.76,1.84v5.22c0,.72.26,1.34.77,1.85s1.12.76,1.84.76h7.92c.72,0,1.34-.26,1.85-.77.5-.5.76-1.12.76-1.84v-5.22ZM50.15,11.34v-3.96h6.66v3.96h-6.66ZM56.63,8.46h-5.4v2.7h5.4v-2.7Z"/>
      <path d="M75.89,14.83c-.55.55-1.21.83-1.98.83h-7.92c-.77,0-1.42-.27-1.96-.81-.19-.19-.33-.35-.41-.49-.16-.08-.32-.22-.49-.41-.55-.58-.83-1.24-.83-1.98v-5.22c0-.77.27-1.42.81-1.96s1.21-.83,1.98-.83h7.92c.77,0,1.42.27,1.96.81.16.16.29.32.4.5.05.02.09.05.13.09s.08.07.12.09c.05.04.09.07.13.11s.08.07.12.11c.55.54.83,1.2.83,1.98v5.22c0,.77-.27,1.42-.81,1.96ZM75.62,6.75c0-.72-.26-1.34-.77-1.85-.5-.5-1.12-.76-1.84-.76h-7.92c-.72,0-1.34.26-1.85.77s-.76,1.12-.76,1.84v5.22c0,.72.26,1.34.77,1.85s1.12.76,1.84.76h7.92c.72,0,1.34-.26,1.85-.77.5-.5.76-1.12.76-1.84v-5.22ZM65.72,11.34v-3.96h6.66v3.96h-6.66ZM72.2,8.46h-5.4v2.7h5.4v-2.7Z"/>
      <path d="M91.48,15.01c-.55.55-1.21.83-1.98.83h-7.11v4.5h-3.6v-.9h-.9V3.96h10.71c.77,0,1.42.27,1.96.81.16.16.29.32.4.5.05.02.09.05.13.09s.08.07.12.09c.05.04.09.07.13.11s.08.07.12.11c.55.54.83,1.2.83,1.98v5.4c0,.77-.27,1.42-.81,1.96ZM91.21,6.75c0-.72-.26-1.34-.77-1.85-.5-.5-1.12-.76-1.84-.76h-10.53v15.12h3.24v-4.5h7.29c.72,0,1.34-.26,1.85-.77.5-.5.76-1.12.76-1.84v-5.4ZM81.31,11.52v-4.14h6.66v4.14h-6.66ZM87.79,8.46h-5.4v2.88h5.4v-2.88Z"/>
    </g>
  </g>
</svg>